# xmcd
#
# Track frame offsets:
#	150
#	26713
#	55783
#	79853
#	105688
#	130400
#	151308
#	177898
#	203540
#	220443
#	244345
#	271983
#
# Disc length: 3956 seconds
#
# Revision: 2
# Processed by: cddbd v1.5.2PL0 Copyright (c) Steve Scherf et al.
# Submitted via: EZCDAudioConverter 8.0.2.1
#
DISCID=a70f720c
DTITLE=Various Artist - Chiều Vàng
DYEAR=1996
DGENRE=
TTITLE0=Hương Lan - Trăng mờ bên suối
TTITLE1=Việt Dzũng - Chiều Vàng
TTITLE2=Thanh Hà - Mưa rơi
TTITLE3=Như Mai - Sơn nữ ca
TTITLE4=Duy Quang - Dư âm
TTITLE5=Lệ Thu - Tiếng đàn tôi
TTITLE6=Ngọc Minh - Dứt đường tơ
TTITLE7=Mai Hương - Thiên thai
TTITLE8=Phương Hoài Tâm - Tống biệt
TTITLE9=Bạch Yến - Bến cũ
TTITLE10=Xuân Sơn - Hoài cảm
TTITLE11=Diễm Chi - Bóng chiều xưa
EXTD=
EXTT0=
EXTT1=
EXTT2=
EXTT3=
EXTT4=
EXTT5=
EXTT6=
EXTT7=
EXTT8=
EXTT9=
EXTT10=
EXTT11=
PLAYORDER=
